<svg width="12" height="11" viewBox="0 0 12 11" fill="none" xmlns="http://www.w3.org/2000/svg">
<path d="M2.847 10V2.941H0.052V0.899999H8.203V2.941H5.421V10H2.847ZM9.64062 10.117C9.22462 10.117 8.87362 9.97833 8.58762 9.701C8.30162 9.42367 8.15862 9.07267 8.15862 8.648C8.15862 8.206 8.30162 7.855 8.58762 7.595C8.87362 7.32633 9.22462 7.192 9.64062 7.192C10.0566 7.192 10.4076 7.32633 10.6936 7.595C10.9796 7.855 11.1226 8.206 11.1226 8.648C11.1226 9.07267 10.9796 9.42367 10.6936 9.701C10.4076 9.97833 10.0566 10.117 9.64062 10.117Z" fill="#E3FE52"/>
</svg>
