<svg width="273" height="273" viewBox="0 0 273 273" fill="none" xmlns="http://www.w3.org/2000/svg">
<path d="M170.62 136.664L265.62 41.6638C270.129 37.163 272.665 31.0556 272.671 24.685C272.676 18.3144 270.151 12.2024 265.65 7.69376C261.149 3.18508 255.042 0.648975 248.671 0.643349C242.301 0.637723 236.189 3.16304 231.68 7.66376L136.68 102.664L41.6802 7.66376C37.1715 3.15508 31.0564 0.622131 24.6802 0.622131C18.3039 0.622131 12.1889 3.15508 7.68018 7.66376C3.1715 12.1724 0.63855 18.2875 0.63855 24.6638C0.63855 31.04 3.1715 37.1551 7.68018 41.6638L102.68 136.664L7.68018 231.664C3.1715 236.172 0.63855 242.288 0.63855 248.664C0.63855 255.04 3.1715 261.155 7.68018 265.664C12.1889 270.172 18.3039 272.705 24.6802 272.705C31.0564 272.705 37.1715 270.172 41.6802 265.664L136.68 170.664L231.68 265.664C236.189 270.172 242.304 272.705 248.68 272.705C255.056 272.705 261.171 270.172 265.68 265.664C270.189 261.155 272.722 255.04 272.722 248.664C272.722 242.288 270.189 236.172 265.68 231.664L170.62 136.664Z" fill="white"/>
</svg>
