<svg width="18" height="19" viewBox="0 0 18 19" fill="none" xmlns="http://www.w3.org/2000/svg">
<path d="M3.9375 4.50891L4.64062 15.7589C4.67402 16.409 5.14687 16.8839 5.76562 16.8839H12.2344C12.8556 16.8839 13.3196 16.409 13.3594 15.7589L14.0625 4.50891" stroke="black" stroke-linecap="round" stroke-linejoin="round"/>
<path d="M2.8125 4.50891H15.1875H2.8125Z" fill="black"/>
<path d="M2.8125 4.50891H15.1875" stroke="black" stroke-miterlimit="10" stroke-linecap="round"/>
<path d="M6.75 4.50891V3.10266C6.74968 2.99177 6.77128 2.88191 6.81357 2.77939C6.85585 2.67688 6.91799 2.58373 6.9964 2.50532C7.07482 2.4269 7.16796 2.36477 7.27048 2.32248C7.37299 2.28019 7.48286 2.25859 7.59375 2.25891H10.4062C10.5171 2.25859 10.627 2.28019 10.7295 2.32248C10.832 2.36477 10.9252 2.4269 11.0036 2.50532C11.082 2.58373 11.1441 2.67688 11.1864 2.77939C11.2287 2.88191 11.2503 2.99177 11.25 3.10266V4.50891M9 6.75891V14.6339M6.46875 6.75891L6.75 14.6339M11.5312 6.75891L11.25 14.6339" stroke="black" stroke-linecap="round" stroke-linejoin="round"/>
</svg>
