<svg width="18" height="19" viewBox="0 0 18 19" fill="none" xmlns="http://www.w3.org/2000/svg">
<path d="M3.9375 4.36606L4.64062 15.6161C4.67402 16.2661 5.14687 16.7411 5.76562 16.7411H12.2344C12.8556 16.7411 13.3196 16.2661 13.3594 15.6161L14.0625 4.36606" stroke="white" stroke-linecap="round" stroke-linejoin="round"/>
<path d="M2.8125 4.36606H15.1875H2.8125Z" fill="white"/>
<path d="M2.8125 4.36606H15.1875" stroke="white" stroke-miterlimit="10" stroke-linecap="round"/>
<path d="M6.75 4.36606V2.95981C6.74968 2.84892 6.77128 2.73905 6.81357 2.63654C6.85585 2.53402 6.91799 2.44088 6.9964 2.36247C7.07482 2.28405 7.16796 2.22191 7.27048 2.17963C7.37299 2.13734 7.48286 2.11574 7.59375 2.11606H10.4062C10.5171 2.11574 10.627 2.13734 10.7295 2.17963C10.832 2.22191 10.9252 2.28405 11.0036 2.36247C11.082 2.44088 11.1441 2.53402 11.1864 2.63654C11.2287 2.73905 11.2503 2.84892 11.25 2.95981V4.36606M9 6.61606V14.4911M6.46875 6.61606L6.75 14.4911M11.5312 6.61606L11.25 14.4911" stroke="white" stroke-linecap="round" stroke-linejoin="round"/>
</svg>
