<svg width="19" height="19" viewBox="0 0 19 19" fill="none" xmlns="http://www.w3.org/2000/svg">
<path d="M14.25 8.30356V14.7723C14.25 14.957 14.2116 15.1398 14.137 15.3105C14.0624 15.4811 13.9531 15.6361 13.8152 15.7667C13.6774 15.8973 13.5138 16.0008 13.3337 16.0715C13.1536 16.1422 12.9606 16.1786 12.7656 16.1786H3.85938C3.46569 16.1786 3.08814 16.0304 2.80976 15.7667C2.53139 15.503 2.375 15.1453 2.375 14.7723V6.33481C2.375 5.96185 2.53139 5.60416 2.80976 5.34044C3.08814 5.07672 3.46569 4.92856 3.85938 4.92856H10.0745" stroke="white" stroke-width="1.5" stroke-linecap="round" stroke-linejoin="round"/>
<path d="M17.0681 2.30064C17.0138 2.24419 16.9481 2.19875 16.8748 2.16705C16.8015 2.13535 16.7222 2.11806 16.6417 2.11622C16.5611 2.11438 16.481 2.12803 16.4062 2.15634C16.3314 2.18466 16.2634 2.22705 16.2064 2.28095L15.7473 2.71372C15.6917 2.76646 15.6605 2.83797 15.6605 2.91253C15.6605 2.98709 15.6917 3.0586 15.7473 3.11134L16.1682 3.50931C16.1958 3.53557 16.2285 3.5564 16.2647 3.57062C16.3008 3.58483 16.3395 3.59215 16.3786 3.59215C16.4177 3.59215 16.4564 3.58483 16.4925 3.57062C16.5286 3.5564 16.5614 3.53557 16.589 3.50931L17.0365 3.08744C17.2629 2.87333 17.284 2.52458 17.0681 2.30064ZM14.8192 3.59263L8.12026 9.92779C8.07964 9.96611 8.05012 10.0137 8.03454 10.066L7.72467 10.9403C7.71725 10.964 7.71672 10.9892 7.72315 11.0132C7.72958 11.0372 7.74272 11.0591 7.76119 11.0766C7.77966 11.0941 7.80277 11.1065 7.82808 11.1126C7.8534 11.1187 7.87998 11.1182 7.90502 11.1111L8.82719 10.8176C8.88236 10.8028 8.93258 10.7749 8.97303 10.7364L15.6601 4.38927C15.722 4.33003 15.7567 4.25007 15.7567 4.16673C15.7567 4.0834 15.722 4.00343 15.6601 3.94419L15.2909 3.59263C15.2283 3.53349 15.1435 3.50027 15.0551 3.50027C14.9667 3.50027 14.8818 3.53349 14.8192 3.59263Z" fill="white"/>
</svg>
