<svg width="19" height="19" viewBox="0 0 19 19" fill="none" xmlns="http://www.w3.org/2000/svg">
<path d="M14.25 8.44641V14.9152C14.25 15.0998 14.2116 15.2827 14.137 15.4533C14.0624 15.6239 13.9531 15.7789 13.8152 15.9095C13.6774 16.0401 13.5138 16.1437 13.3337 16.2144C13.1536 16.285 12.9606 16.3214 12.7656 16.3214H3.85938C3.46569 16.3214 3.08814 16.1733 2.80976 15.9095C2.53139 15.6458 2.375 15.2881 2.375 14.9152V6.47766C2.375 6.1047 2.53139 5.74702 2.80976 5.48329C3.08814 5.21957 3.46569 5.07141 3.85938 5.07141H10.0745" stroke="black" stroke-width="1.5" stroke-linecap="round" stroke-linejoin="round"/>
<path d="M17.0681 2.44348C17.0138 2.38703 16.9481 2.34159 16.8748 2.30989C16.8015 2.27819 16.7222 2.2609 16.6417 2.25906C16.5611 2.25722 16.481 2.27087 16.4062 2.29918C16.3314 2.3275 16.2634 2.36988 16.2064 2.42379L15.7473 2.85656C15.6917 2.9093 15.6605 2.98081 15.6605 3.05537C15.6605 3.12993 15.6917 3.20144 15.7473 3.25418L16.1682 3.65215C16.1958 3.6784 16.2285 3.69924 16.2647 3.71345C16.3008 3.72767 16.3395 3.73499 16.3786 3.73499C16.4177 3.73499 16.4564 3.72767 16.4925 3.71345C16.5286 3.69924 16.5614 3.6784 16.589 3.65215L17.0365 3.23027C17.2629 3.01617 17.284 2.66742 17.0681 2.44348ZM14.8192 3.73547L8.12026 10.0706C8.07964 10.1089 8.05012 10.1565 8.03454 10.2088L7.72467 11.0831C7.71725 11.1068 7.71672 11.132 7.72315 11.156C7.72958 11.18 7.74272 11.2019 7.76119 11.2194C7.77966 11.2369 7.80277 11.2493 7.82808 11.2554C7.8534 11.2615 7.87998 11.261 7.90502 11.254L8.82719 10.9604C8.88236 10.9457 8.93258 10.9177 8.97303 10.8792L15.6601 4.53211C15.722 4.47287 15.7567 4.3929 15.7567 4.30957C15.7567 4.22624 15.722 4.14627 15.6601 4.08703L15.2909 3.73547C15.2283 3.67632 15.1435 3.64311 15.0551 3.64311C14.9667 3.64311 14.8818 3.67632 14.8192 3.73547Z" fill="black"/>
</svg>
